<svg width="143" height="143" viewBox="0 0 143 143" fill="none" xmlns="http://www.w3.org/2000/svg">
<rect width="143" height="143" fill="#0D1B2A"/>
<path d="M31.0995 23.0705C37.3328 22.9305 43.9467 23.0389 50.2099 23.0584C49.7928 42.7765 50.4874 62.7534 50.2088 82.484C50.4066 89.082 50.4714 94.4667 55.4042 99.3019C63.1562 106.901 82.5638 105.863 85.7492 94.0457C87.5633 87.3163 87.1565 77.1603 86.9703 69.9587C93.3669 69.7822 99.5423 69.9331 105.913 69.9606C105.915 75.0329 105.993 80.4063 105.793 85.4597C105.582 116.096 84.6812 122.377 58.5587 119.068C46.6894 117.565 35.8917 110.323 33.0815 98.2045C30.9688 89.0937 31.2795 79.2626 31.2717 70.0568L31.2733 44.955C31.2784 40.4662 31.2282 35.9775 31.1229 31.4897C31.0704 28.5 30.8886 26.0722 31.0995 23.0705Z" fill="white"/>
<path d="M90.3922 23.05C94.2226 23.0074 98.0963 23.0367 101.93 23.0451C101.612 27.1127 101.212 31.1731 100.728 35.2241C100.571 36.5533 100.336 39.1172 100.012 40.3362C105.324 38.0625 110.351 35.3571 115.837 33.2061C116.576 33.7166 119.085 42.2577 119.632 43.8545C114.153 45.2643 108.59 46.3253 102.976 47.0314C106.955 50.7293 110.918 55.6606 114.567 59.7301C112.209 60.7679 107.142 64.3958 104.587 65.9756C104.452 65.937 99.0412 56.715 98.5739 55.9204C97.7517 54.3452 96.8976 53.4159 96.0101 51.9648C95.1823 53.7651 88.4198 64.5291 87.2201 65.7809C87.044 65.8 78.953 60.35 77.5056 59.733C79.0639 57.5522 82.7177 54.0191 84.6663 52.0446C86.1163 50.5755 88.2466 48.3853 89.7337 47.1043C85.6264 46.1273 81.1484 45.8227 77.027 44.6818C75.943 44.3819 74.5748 44.0545 73.4717 43.8826C74.2864 42.0764 76.8432 33.786 77.8395 33.1744C81.03 34.5385 84.1788 35.8609 87.2574 37.475C88.9105 38.3418 90.5781 39.2184 92.2784 39.9864C91.3761 34.8314 90.7213 28.2966 90.3922 23.05Z" fill="white"/>
</svg>
